# xmcd
#
# Track frame offsets:
#	150
#	17126
#	29347
#	40318
#	53523
#	62331
#	80580
#	91521
#	100587
#	114748
#
# Disc length: 1693 seconds
#
# Revision: 2
# Processed by: cddbd v1.4b42PL0 Copyright (c) Steve Scherf et al.
# Submitted via: EZCDDA 4.3.2
#
DISCID=6c069b0a
DTITLE=Paul Dwayne - Ensemble Pour Toujours
DYEAR=1900
DGENRE=
TTITLE0=Ensemble Pour Toujours
TTITLE1=Le Ford A Mon Grand-pere
TTITLE2=Danser Au Pays De La Sagouine
TTITLE3=T'eloigner De Moi
TTITLE4=Fiere De Sa Famille
TTITLE5=Tes Bon Avis
TTITLE6=Du Country En Francais
TTITLE7=Joli Fille De La Baie
TTITLE8=J'irai Moi Aussi
TTITLE9=Soiree D'hiver
EXTD=
EXTT0=
EXTT1=
EXTT2=
EXTT3=
EXTT4=
EXTT5=
EXTT6=
EXTT7=
EXTT8=
EXTT9=
PLAYORDER=
